<svg id="Grupo_3185" data-name="Grupo 3185" xmlns="http://www.w3.org/2000/svg" xmlns:xlink="http://www.w3.org/1999/xlink" width="329.567" height="740.712" viewBox="0 0 329.567 740.712">
  <defs>
    <clipPath id="clip-path">
      <rect id="Rectángulo_4541" data-name="Rectángulo 4541" width="329.566" height="740.712" fill="none"/>
    </clipPath>
    <clipPath id="clip-path-2">
      <rect id="Rectángulo_4544" data-name="Rectángulo 4544" width="329.566" height="613.712" fill="none"/>
    </clipPath>
  </defs>
  <g id="Grupo_3182" data-name="Grupo 3182">
    <g id="Grupo_3181" data-name="Grupo 3181" clip-path="url(#clip-path)">
      <path id="Trazado_1394" data-name="Trazado 1394" d="M39.015,213.161V382.416c0,25.641-15.486,58.808-34,60.732H243.241c19.385,0,35.205-34.073,35.205-60.574V213.161Z" transform="translate(6.449 274.008)" fill="#0071bc"/>
      <rect id="Rectángulo_4537" data-name="Rectángulo 4537" width="239.431" height="58.178" transform="translate(45.464 314.693)" fill="#2aa5c6"/>
      <rect id="Rectángulo_4538" data-name="Rectángulo 4538" width="239.431" height="58.261" transform="translate(45.069 142.605)" fill="#0c7fbf"/>
      <rect id="Rectángulo_4539" data-name="Rectángulo 4539" width="239.431" height="58.261" transform="translate(45.069 199.41)" fill="#148cc1"/>
      <rect id="Rectángulo_4540" data-name="Rectángulo 4540" width="239.431" height="58.722" transform="translate(45.069 257.391)" fill="#1e97c1"/>
      <path id="Unión_14" data-name="Unión 14" d="M45.068,142.609V95.324H2.116c-2.03,0-2.892-1.942-1.266-2.858l12.528-7.059H316.19l12.526,7.059c1.628.916.765,2.858-1.266,2.858H284.5v47.285ZM13.379,85.4,164.783,0l151.4,85.4Z" transform="translate(0 0)" fill="#0071bc" stroke="rgba(0,0,0,0)" stroke-width="1"/>
      <path id="Trazado_1397" data-name="Trazado 1397" d="M133.568,52.625a40.99,40.99,0,1,1-40.99-40.99,40.99,40.99,0,0,1,40.99,40.99" transform="translate(66.315 14.956)" fill="#fff"/>
      <path id="token_24dp_5F6368_FILL0_wght200_GRAD0_opsz24" d="M155.914-821.635,140-830.456V-848.1l15.914-8.821,15.914,8.821v17.643Zm-5.249-21.639A6.97,6.97,0,0,1,153-845.15a6.453,6.453,0,0,1,2.913-.681,6.453,6.453,0,0,1,2.913.681,6.971,6.971,0,0,1,2.337,1.876l7.705-4.289-12.955-7.212-12.955,7.212Zm4.313,18.968v-8.436a6.793,6.793,0,0,1-4.018-2.272,6.287,6.287,0,0,1-1.6-4.263,6.564,6.564,0,0,1,.1-1.176,6.81,6.81,0,0,1,.314-1.129l-7.9-4.429v14.435l13.106,7.27Zm.936-10.29a4.525,4.525,0,0,0,3.329-1.352,4.525,4.525,0,0,0,1.352-3.329,4.525,4.525,0,0,0-1.352-3.329,4.525,4.525,0,0,0-3.329-1.352,4.525,4.525,0,0,0-3.329,1.352,4.525,4.525,0,0,0-1.352,3.329,4.525,4.525,0,0,0,1.352,3.329A4.525,4.525,0,0,0,155.914-834.6Zm.936,10.29,13.106-7.27v-14.435l-7.9,4.429a6.8,6.8,0,0,1,.314,1.129,6.56,6.56,0,0,1,.1,1.176,6.287,6.287,0,0,1-1.6,4.263,6.793,6.793,0,0,1-4.018,2.272v8.436Z" transform="translate(2.979 906.858)" fill="#5f6368"/>
    </g>
    <text id="_Las_pruebas_de_penetración_no_sólo_ayudan_a_identificar_y_corregir_vulnerabilidades_sino_que_también_proporcionan_una_comprensión_profunda_de_la_postura_de_seguridad_de_una_organización_permitiendo_implementar_medidas_de_seguridad_más_efectivas." data-name="
Las pruebas de penetración no sólo ayudan a identificar y corregir vulnerabilidades, sino que también proporcionan una comprensión profunda de la postura de seguridad de una organización, permitiendo implementar medidas de seguridad más efectivas." transform="translate(72.094 550.382)" fill="#fff" font-size="12" font-family="Roboto-Regular, Roboto"><tspan x="0" y="13"></tspan><tspan x="0" y="29">Las pruebas de penetración no sólo </tspan><tspan x="0" y="45">ayudan a identificar y corregir </tspan><tspan x="0" y="61">vulnerabilidades, sino que también </tspan><tspan x="0" y="77">proporcionan una comprensión </tspan><tspan x="0" y="93">profunda de la postura de seguridad </tspan><tspan x="0" y="109">de una organización, permitiendo </tspan><tspan x="0" y="125">implementar medidas de seguridad </tspan></text>
  </g>
  <text id="Pruebas_de_penetración" data-name="Pruebas de penetración" transform="translate(62.205 126.271)" fill="#fff" font-size="13" font-family="Montserrat-Bold, Montserrat" font-weight="700"><tspan x="0" y="0">Pruebas de penetración</tspan></text>
  <g id="Grupo_3184" data-name="Grupo 3184">
    <g id="Grupo_3183" data-name="Grupo 3183" clip-path="url(#clip-path-2)">
      <path id="Trazado_1399" data-name="Trazado 1399" d="M58.2,84.177A15.427,15.427,0,1,1,42.771,68.75,15.427,15.427,0,0,1,58.2,84.177" transform="translate(50.43 88.375)" fill="#fff"/>
      <path id="Trazado_1400" data-name="Trazado 1400" d="M58.127,109.523A15.427,15.427,0,1,1,42.7,94.1a15.427,15.427,0,0,1,15.427,15.427" transform="translate(50.501 120.956)" fill="#fff"/>
      <path id="Trazado_1401" data-name="Trazado 1401" d="M58.127,133.793A15.427,15.427,0,1,1,42.7,118.366a15.427,15.427,0,0,1,15.427,15.427" transform="translate(50.501 152.154)" fill="#fff"/>
      <path id="Trazado_1402" data-name="Trazado 1402" d="M58.127,158.591A15.427,15.427,0,1,1,42.7,143.164a15.427,15.427,0,0,1,15.427,15.427" transform="translate(50.501 184.03)" fill="#fff"/>
      <rect id="Rectángulo_4542" data-name="Rectángulo 4542" width="239.431" height="58.178" transform="translate(45.464 371.793)" fill="#33afcc"/>
      <path id="Trazado_1403" data-name="Trazado 1403" d="M58.127,183.576A15.427,15.427,0,1,1,42.7,168.149a15.427,15.427,0,0,1,15.427,15.427" transform="translate(50.501 216.147)" fill="#fff"/>
      <rect id="Rectángulo_4543" data-name="Rectángulo 4543" width="239.431" height="58.178" transform="translate(45.464 428.435)" fill="#42bed3"/>
      <path id="Trazado_1404" data-name="Trazado 1404" d="M58.127,208.359A15.427,15.427,0,1,1,42.7,192.932a15.427,15.427,0,0,1,15.427,15.427" transform="translate(50.501 248.005)" fill="#fff"/>
      <path id="Trazado_1405" data-name="Trazado 1405" d="M58.134,233.912a15.427,15.427,0,1,1-15.427-15.427,15.427,15.427,0,0,1,15.427,15.427" transform="translate(50.494 280.852)" fill="#fff"/>
      <path id="token_24dp_5F6368_FILL0_wght200_GRAD0_opsz24-2" data-name="token_24dp_5F6368_FILL0_wght200_GRAD0_opsz24" d="M148.792-837.426,140-842.3v-9.747l8.792-4.873,8.792,4.873v9.747Zm-2.9-11.955a3.85,3.85,0,0,1,1.291-1.036,3.566,3.566,0,0,1,1.609-.376,3.566,3.566,0,0,1,1.609.376,3.85,3.85,0,0,1,1.291,1.036l4.257-2.369-7.157-3.984-7.157,3.984Zm2.383,10.479v-4.661a3.753,3.753,0,0,1-2.22-1.255,3.473,3.473,0,0,1-.883-2.355,3.626,3.626,0,0,1,.056-.65,3.759,3.759,0,0,1,.173-.623l-4.366-2.447v7.975l7.241,4.016Zm.517-5.685a2.5,2.5,0,0,0,1.839-.747,2.5,2.5,0,0,0,.747-1.839,2.5,2.5,0,0,0-.747-1.839,2.5,2.5,0,0,0-1.839-.747,2.5,2.5,0,0,0-1.839.747,2.5,2.5,0,0,0-.747,1.839,2.5,2.5,0,0,0,.747,1.839A2.5,2.5,0,0,0,148.792-844.587Zm.517,5.685,7.241-4.016v-7.975l-4.366,2.447a3.759,3.759,0,0,1,.173.623,3.626,3.626,0,0,1,.056.65,3.474,3.474,0,0,1-.883,2.355,3.753,3.753,0,0,1-2.22,1.255v4.661Z" transform="translate(-55.591 1019.724)" fill="#5f6368"/>
      <path id="token_24dp_5F6368_FILL0_wght200_GRAD0_opsz24-3" data-name="token_24dp_5F6368_FILL0_wght200_GRAD0_opsz24" d="M148.792-837.426,140-842.3v-9.747l8.792-4.873,8.792,4.873v9.747Zm-2.9-11.955a3.85,3.85,0,0,1,1.291-1.036,3.566,3.566,0,0,1,1.609-.376,3.566,3.566,0,0,1,1.609.376,3.85,3.85,0,0,1,1.291,1.036l4.257-2.369-7.157-3.984-7.157,3.984Zm2.383,10.479v-4.661a3.753,3.753,0,0,1-2.22-1.255,3.473,3.473,0,0,1-.883-2.355,3.626,3.626,0,0,1,.056-.65,3.759,3.759,0,0,1,.173-.623l-4.366-2.447v7.975l7.241,4.016Zm.517-5.685a2.5,2.5,0,0,0,1.839-.747,2.5,2.5,0,0,0,.747-1.839,2.5,2.5,0,0,0-.747-1.839,2.5,2.5,0,0,0-1.839-.747,2.5,2.5,0,0,0-1.839.747,2.5,2.5,0,0,0-.747,1.839,2.5,2.5,0,0,0,.747,1.839A2.5,2.5,0,0,0,148.792-844.587Zm.517,5.685,7.241-4.016v-7.975l-4.366,2.447a3.759,3.759,0,0,1,.173.623,3.626,3.626,0,0,1,.056.65,3.474,3.474,0,0,1-.883,2.355,3.753,3.753,0,0,1-2.22,1.255v4.661Z" transform="translate(-55.591 1077.652)" fill="#5f6368"/>
      <path id="token_24dp_5F6368_FILL0_wght200_GRAD0_opsz24-4" data-name="token_24dp_5F6368_FILL0_wght200_GRAD0_opsz24" d="M148.792-837.426,140-842.3v-9.747l8.792-4.873,8.792,4.873v9.747Zm-2.9-11.955a3.85,3.85,0,0,1,1.291-1.036,3.566,3.566,0,0,1,1.609-.376,3.566,3.566,0,0,1,1.609.376,3.85,3.85,0,0,1,1.291,1.036l4.257-2.369-7.157-3.984-7.157,3.984Zm2.383,10.479v-4.661a3.753,3.753,0,0,1-2.22-1.255,3.473,3.473,0,0,1-.883-2.355,3.626,3.626,0,0,1,.056-.65,3.759,3.759,0,0,1,.173-.623l-4.366-2.447v7.975l7.241,4.016Zm.517-5.685a2.5,2.5,0,0,0,1.839-.747,2.5,2.5,0,0,0,.747-1.839,2.5,2.5,0,0,0-.747-1.839,2.5,2.5,0,0,0-1.839-.747,2.5,2.5,0,0,0-1.839.747,2.5,2.5,0,0,0-.747,1.839,2.5,2.5,0,0,0,.747,1.839A2.5,2.5,0,0,0,148.792-844.587Zm.517,5.685,7.241-4.016v-7.975l-4.366,2.447a3.759,3.759,0,0,1,.173.623,3.626,3.626,0,0,1,.056.65,3.474,3.474,0,0,1-.883,2.355,3.753,3.753,0,0,1-2.22,1.255v4.661Z" transform="translate(-55.591 1133.12)" fill="#5f6368"/>
      <path id="token_24dp_5F6368_FILL0_wght200_GRAD0_opsz24-5" data-name="token_24dp_5F6368_FILL0_wght200_GRAD0_opsz24" d="M148.792-837.426,140-842.3v-9.747l8.792-4.873,8.792,4.873v9.747Zm-2.9-11.955a3.85,3.85,0,0,1,1.291-1.036,3.566,3.566,0,0,1,1.609-.376,3.566,3.566,0,0,1,1.609.376,3.85,3.85,0,0,1,1.291,1.036l4.257-2.369-7.157-3.984-7.157,3.984Zm2.383,10.479v-4.661a3.753,3.753,0,0,1-2.22-1.255,3.473,3.473,0,0,1-.883-2.355,3.626,3.626,0,0,1,.056-.65,3.759,3.759,0,0,1,.173-.623l-4.366-2.447v7.975l7.241,4.016Zm.517-5.685a2.5,2.5,0,0,0,1.839-.747,2.5,2.5,0,0,0,.747-1.839,2.5,2.5,0,0,0-.747-1.839,2.5,2.5,0,0,0-1.839-.747,2.5,2.5,0,0,0-1.839.747,2.5,2.5,0,0,0-.747,1.839,2.5,2.5,0,0,0,.747,1.839A2.5,2.5,0,0,0,148.792-844.587Zm.517,5.685,7.241-4.016v-7.975l-4.366,2.447a3.759,3.759,0,0,1,.173.623,3.626,3.626,0,0,1,.056.65,3.474,3.474,0,0,1-.883,2.355,3.753,3.753,0,0,1-2.22,1.255v4.661Z" transform="translate(-55.591 1189.794)" fill="#5f6368"/>
      <path id="token_24dp_5F6368_FILL0_wght200_GRAD0_opsz24-6" data-name="token_24dp_5F6368_FILL0_wght200_GRAD0_opsz24" d="M148.792-837.426,140-842.3v-9.747l8.792-4.873,8.792,4.873v9.747Zm-2.9-11.955a3.85,3.85,0,0,1,1.291-1.036,3.566,3.566,0,0,1,1.609-.376,3.566,3.566,0,0,1,1.609.376,3.85,3.85,0,0,1,1.291,1.036l4.257-2.369-7.157-3.984-7.157,3.984Zm2.383,10.479v-4.661a3.753,3.753,0,0,1-2.22-1.255,3.473,3.473,0,0,1-.883-2.355,3.626,3.626,0,0,1,.056-.65,3.759,3.759,0,0,1,.173-.623l-4.366-2.447v7.975l7.241,4.016Zm.517-5.685a2.5,2.5,0,0,0,1.839-.747,2.5,2.5,0,0,0,.747-1.839,2.5,2.5,0,0,0-.747-1.839,2.5,2.5,0,0,0-1.839-.747,2.5,2.5,0,0,0-1.839.747,2.5,2.5,0,0,0-.747,1.839,2.5,2.5,0,0,0,.747,1.839A2.5,2.5,0,0,0,148.792-844.587Zm.517,5.685,7.241-4.016v-7.975l-4.366,2.447a3.759,3.759,0,0,1,.173.623,3.626,3.626,0,0,1,.056.65,3.474,3.474,0,0,1-.883,2.355,3.753,3.753,0,0,1-2.22,1.255v4.661Z" transform="translate(-55.591 1246.896)" fill="#5f6368"/>
      <path id="token_24dp_5F6368_FILL0_wght200_GRAD0_opsz24-7" data-name="token_24dp_5F6368_FILL0_wght200_GRAD0_opsz24" d="M148.792-837.426,140-842.3v-9.747l8.792-4.873,8.792,4.873v9.747Zm-2.9-11.955a3.85,3.85,0,0,1,1.291-1.036,3.566,3.566,0,0,1,1.609-.376,3.566,3.566,0,0,1,1.609.376,3.85,3.85,0,0,1,1.291,1.036l4.257-2.369-7.157-3.984-7.157,3.984Zm2.383,10.479v-4.661a3.753,3.753,0,0,1-2.22-1.255,3.473,3.473,0,0,1-.883-2.355,3.626,3.626,0,0,1,.056-.65,3.759,3.759,0,0,1,.173-.623l-4.366-2.447v7.975l7.241,4.016Zm.517-5.685a2.5,2.5,0,0,0,1.839-.747,2.5,2.5,0,0,0,.747-1.839,2.5,2.5,0,0,0-.747-1.839,2.5,2.5,0,0,0-1.839-.747,2.5,2.5,0,0,0-1.839.747,2.5,2.5,0,0,0-.747,1.839,2.5,2.5,0,0,0,.747,1.839A2.5,2.5,0,0,0,148.792-844.587Zm.517,5.685,7.241-4.016v-7.975l-4.366,2.447a3.759,3.759,0,0,1,.173.623,3.626,3.626,0,0,1,.056.65,3.474,3.474,0,0,1-.883,2.355,3.753,3.753,0,0,1-2.22,1.255v4.661Z" transform="translate(-55.591 1303.536)" fill="#5f6368"/>
      <path id="token_24dp_5F6368_FILL0_wght200_GRAD0_opsz24-8" data-name="token_24dp_5F6368_FILL0_wght200_GRAD0_opsz24" d="M148.792-837.426,140-842.3v-9.747l8.792-4.873,8.792,4.873v9.747Zm-2.9-11.955a3.85,3.85,0,0,1,1.291-1.036,3.566,3.566,0,0,1,1.609-.376,3.566,3.566,0,0,1,1.609.376,3.85,3.85,0,0,1,1.291,1.036l4.257-2.369-7.157-3.984-7.157,3.984Zm2.383,10.479v-4.661a3.753,3.753,0,0,1-2.22-1.255,3.473,3.473,0,0,1-.883-2.355,3.626,3.626,0,0,1,.056-.65,3.759,3.759,0,0,1,.173-.623l-4.366-2.447v7.975l7.241,4.016Zm.517-5.685a2.5,2.5,0,0,0,1.839-.747,2.5,2.5,0,0,0,.747-1.839,2.5,2.5,0,0,0-.747-1.839,2.5,2.5,0,0,0-1.839-.747,2.5,2.5,0,0,0-1.839.747,2.5,2.5,0,0,0-.747,1.839,2.5,2.5,0,0,0,.747,1.839A2.5,2.5,0,0,0,148.792-844.587Zm.517,5.685,7.241-4.016v-7.975l-4.366,2.447a3.759,3.759,0,0,1,.173.623,3.626,3.626,0,0,1,.056.65,3.474,3.474,0,0,1-.883,2.355,3.753,3.753,0,0,1-2.22,1.255v4.661Z" transform="translate(-55.591 1361.937)" fill="#5f6368"/>
    </g>
  </g>
  <text id="Pruebas_de_penetración-2" data-name="Pruebas de penetración" transform="translate(123.823 160.785)" fill="#fff" font-size="6" font-family="Montserrat-Bold, Montserrat" font-weight="700"><tspan x="0" y="0" letter-spacing="-0.009em">P</tspan><tspan y="0">rue</tspan><tspan y="0" letter-spacing="-0.008em">b</tspan><tspan y="0">as de pe</tspan><tspan y="0" letter-spacing="0.005em">n</tspan><tspan y="0">et</tspan><tspan y="0" letter-spacing="-0.006em">r</tspan><tspan y="0" letter-spacing="0.005em">a</tspan><tspan y="0">ción</tspan></text>
  <text id="externas_internas._" data-name="externas, internas. " transform="translate(123.823 174.427)" fill="#fff" font-size="6" font-family="Montserrat-Bold, Montserrat" font-weight="700"><tspan x="0" y="0" letter-spacing="-0.014em">e</tspan><tspan y="0">x</tspan><tspan y="0" letter-spacing="-0.016em">t</tspan><tspan y="0">e</tspan><tspan y="0" letter-spacing="-0.004em">r</tspan><tspan y="0">nas, in</tspan><tspan y="0" letter-spacing="-0.017em">t</tspan><tspan y="0">e</tspan><tspan y="0" letter-spacing="-0.003em">r</tspan><tspan y="0">nas. </tspan></text>
  <text id="Pruebas_de_ingeniería" data-name="Pruebas de ingeniería" transform="translate(123.823 223.117)" fill="#fff" font-size="6" font-family="Montserrat-Bold, Montserrat" font-weight="700"><tspan x="0" y="0" letter-spacing="-0.009em">P</tspan><tspan y="0">rue</tspan><tspan y="0" letter-spacing="-0.008em">b</tspan><tspan y="0">as de i</tspan><tspan y="0" letter-spacing="0.005em">n</tspan><tspan y="0">genie</tspan><tspan y="0" letter-spacing="-0.003em">r</tspan><tspan y="0">ía</tspan></text>
  <text id="social" transform="translate(123.823 236.76)" fill="#fff" font-size="6" font-family="Montserrat-Bold, Montserrat" font-weight="700"><tspan x="0" y="0">social</tspan></text>
  <text id="Pruebas_de_penetración-3" data-name="Pruebas de penetración" transform="translate(123.823 280.527)" fill="#fff" font-size="6" font-family="Montserrat-Bold, Montserrat" font-weight="700"><tspan x="0" y="0" letter-spacing="-0.009em">P</tspan><tspan y="0">rue</tspan><tspan y="0" letter-spacing="-0.008em">b</tspan><tspan y="0">as de pe</tspan><tspan y="0" letter-spacing="0.005em">n</tspan><tspan y="0">et</tspan><tspan y="0" letter-spacing="-0.006em">r</tspan><tspan y="0" letter-spacing="0.005em">a</tspan><tspan y="0">ción</tspan></text>
  <text id="orientadas_a_aplicativos" data-name="orientadas a aplicativos" transform="translate(123.823 294.169)" fill="#fff" font-size="6" font-family="Montserrat-Bold, Montserrat" font-weight="700"><tspan x="0" y="0">o</tspan><tspan y="0" letter-spacing="-0.004em">r</tspan><tspan y="0">ient</tspan><tspan y="0" letter-spacing="0.005em">a</tspan><tspan y="0">das a aplicati</tspan><tspan y="0" letter-spacing="-0.014em">v</tspan><tspan y="0">os</tspan></text>
  <text id="Pruebas_de_penetración-4" data-name="Pruebas de penetración" transform="translate(123.823 335.698)" fill="#fff" font-size="6" font-family="Montserrat-Bold, Montserrat" font-weight="700"><tspan x="0" y="0" letter-spacing="-0.009em">P</tspan><tspan y="0">rue</tspan><tspan y="0" letter-spacing="-0.008em">b</tspan><tspan y="0">as de pe</tspan><tspan y="0" letter-spacing="0.005em">n</tspan><tspan y="0">et</tspan><tspan y="0" letter-spacing="-0.006em">r</tspan><tspan y="0" letter-spacing="0.005em">a</tspan><tspan y="0">ción</tspan></text>
  <text id="de_infraestructura" data-name="de infraestructura" transform="translate(123.823 349.339)" fill="#fff" font-size="6" font-family="Montserrat-Bold, Montserrat" font-weight="700"><tspan x="0" y="0">de in</tspan><tspan y="0" letter-spacing="0.079em">f</tspan><tspan y="0" letter-spacing="-0.006em">r</tspan><tspan y="0" letter-spacing="0.006em">a</tspan><tspan y="0">estru</tspan><tspan y="0" letter-spacing="0.008em">c</tspan><tspan y="0">tu</tspan><tspan y="0" letter-spacing="-0.006em">r</tspan><tspan y="0">a</tspan></text>
  <text id="Pruebas_de_penetración-5" data-name="Pruebas de penetración" transform="translate(123.823 392.459)" fill="#fff" font-size="6" font-family="Montserrat-Bold, Montserrat" font-weight="700"><tspan x="0" y="0" letter-spacing="-0.009em">P</tspan><tspan y="0">rue</tspan><tspan y="0" letter-spacing="-0.008em">b</tspan><tspan y="0">as de pe</tspan><tspan y="0" letter-spacing="0.005em">n</tspan><tspan y="0">et</tspan><tspan y="0" letter-spacing="-0.006em">r</tspan><tspan y="0" letter-spacing="0.005em">a</tspan><tspan y="0">ción</tspan></text>
  <text id="de_redes_inalámbricas" data-name="de redes inalámbricas" transform="translate(123.823 406.1)" fill="#fff" font-size="6" font-family="Montserrat-Bold, Montserrat" font-weight="700"><tspan x="0" y="0">de </tspan><tspan y="0" letter-spacing="-0.008em">r</tspan><tspan y="0">edes inalámb</tspan><tspan y="0" letter-spacing="-0.003em">r</tspan><tspan y="0">icas</tspan></text>
  <text id="Pruebas_de_penetración-6" data-name="Pruebas de penetración" transform="translate(123.08 508.439)" fill="#fff" font-size="6" font-family="Montserrat-Bold, Montserrat" font-weight="700"><tspan x="0" y="0" letter-spacing="-0.009em">P</tspan><tspan y="0">rue</tspan><tspan y="0" letter-spacing="-0.008em">b</tspan><tspan y="0">as de pe</tspan><tspan y="0" letter-spacing="0.005em">n</tspan><tspan y="0">et</tspan><tspan y="0" letter-spacing="-0.006em">r</tspan><tspan y="0" letter-spacing="0.005em">a</tspan><tspan y="0">ción</tspan></text>
  <text id="a_cajeros_automáticos" data-name="a cajeros automáticos" transform="translate(123.08 522.08)" fill="#fff" font-size="6" font-family="Montserrat-Bold, Montserrat" font-weight="700"><tspan x="0" y="0">a caje</tspan><tspan y="0" letter-spacing="-0.009em">r</tspan><tspan y="0">os au</tspan><tspan y="0" letter-spacing="-0.017em">t</tspan><tspan y="0">omáti</tspan><tspan y="0" letter-spacing="-0.006em">c</tspan><tspan y="0">os</tspan></text>
  <text id="Soluciones_en_la_nube" data-name="Soluciones en la nube" transform="translate(123.823 449.415)" fill="#fff" font-size="6" font-family="Montserrat-Bold, Montserrat" font-weight="700"><tspan x="0" y="0">Solucio</tspan><tspan y="0" letter-spacing="0.005em">n</tspan><tspan y="0">es en la nube</tspan></text>
</svg>
