<svg xmlns="http://www.w3.org/2000/svg" xmlns:xlink="http://www.w3.org/1999/xlink" width="309.196" height="169.719" viewBox="0 0 309.196 169.719">
  <defs>
    <linearGradient id="linear-gradient" x1="0.5" x2="0.5" y2="1" gradientUnits="objectBoundingBox">
      <stop offset="0" stop-color="#4588c9"/>
      <stop offset="1" stop-color="#a27ee9"/>
    </linearGradient>
    <clipPath id="clip-path">
      <rect id="Rectángulo_4533" data-name="Rectángulo 4533" width="309.196" height="169.719" fill="url(#linear-gradient)"/>
    </clipPath>
    <clipPath id="clip-path-2">
      <rect id="Rectángulo_4534" data-name="Rectángulo 4534" width="54.496" height="54.496" fill="none" stroke="#fff" stroke-width="1"/>
    </clipPath>
  </defs>
  <g id="Grupo_3176" data-name="Grupo 3176" transform="translate(0)">
    <g id="Grupo_3168" data-name="Grupo 3168" transform="translate(0 0)">
      <g id="Grupo_3160" data-name="Grupo 3160" transform="translate(0 0)" clip-path="url(#clip-path)">
        <path id="Unión_13" data-name="Unión 13" d="M0,95.88H.017C.007,95.633,0,95.387,0,95.141V32.088C0,14.441,26.71,0,59.351,0h.376V0H309.2V95.141c0,17.649-26.706,32.09-59.343,32.09H71.956L0,169.722Z" transform="translate(-0.002 -0.002)" stroke="rgba(0,0,0,0)" stroke-width="1" fill="url(#linear-gradient)"/>
      </g>
    </g>
    <text id="Identificar_y_seguir_credenciales_comprometidas." data-name="Identificar y seguir credenciales comprometidas." transform="translate(101.276 28.787)" fill="#fff" font-size="14" font-family="SegoeUI-Semibold, Segoe UI" font-weight="600"><tspan x="0" y="15">Identificar y seguir </tspan><tspan x="0" y="34">credenciales comprometidas.</tspan></text>
    <g id="Grupo_3170" data-name="Grupo 3170" transform="translate(25.399 35.538)">
      <g id="Grupo_3162" data-name="Grupo 3162" transform="translate(0 0)" clip-path="url(#clip-path-2)">
        <path id="Trazado_1393" data-name="Trazado 1393" d="M54.5,27.249A27.248,27.248,0,1,1,27.249,0,27.247,27.247,0,0,1,54.5,27.249" transform="translate(0 0)" fill="none" stroke="#fff" stroke-width="1"/>
      </g>
    </g>
    <path id="badge_24dp_5F6368_FILL0_wght200_GRAD0_opsz24" d="M122.118-816.4a2.052,2.052,0,0,1-1.512-.606,2.052,2.052,0,0,1-.606-1.512v-12.81a2.052,2.052,0,0,1,.606-1.512,2.052,2.052,0,0,1,1.512-.607h7.06v-5.245a1.266,1.266,0,0,1,.38-.932,1.266,1.266,0,0,1,.932-.38h2.622a1.266,1.266,0,0,1,.932.38,1.266,1.266,0,0,1,.38.932v5.245h7.06a2.052,2.052,0,0,1,1.512.607,2.052,2.052,0,0,1,.606,1.512v12.81A2.052,2.052,0,0,1,143-817a2.052,2.052,0,0,1-1.512.606Zm0-1.311h19.366a.786.786,0,0,0,.58-.227.786.786,0,0,0,.227-.58v-12.81a.786.786,0,0,0-.227-.58.786.786,0,0,0-.58-.227h-7.06v1.009a1.259,1.259,0,0,1-.392.919,1.259,1.259,0,0,1-.919.392H130.49a1.259,1.259,0,0,1-.919-.392,1.259,1.259,0,0,1-.392-.919v-1.009h-7.06a.786.786,0,0,0-.58.227.786.786,0,0,0-.227.58v12.81a.786.786,0,0,0,.227.58A.786.786,0,0,0,122.118-817.709Zm2.219-3.379h7.06v-.186a1.473,1.473,0,0,0-.248-.831,1.69,1.69,0,0,0-.68-.586,6.742,6.742,0,0,0-1.277-.4,6.483,6.483,0,0,0-1.325-.135,6.483,6.483,0,0,0-1.325.135,6.743,6.743,0,0,0-1.277.4,1.691,1.691,0,0,0-.68.586,1.473,1.473,0,0,0-.248.831Zm10.087-2.017h5.245v-1.16h-5.245Zm-6.556-1.16a1.5,1.5,0,0,0,1.1-.46,1.5,1.5,0,0,0,.46-1.1,1.505,1.505,0,0,0-.46-1.1,1.5,1.5,0,0,0-1.1-.46,1.5,1.5,0,0,0-1.1.46,1.505,1.505,0,0,0-.46,1.1,1.5,1.5,0,0,0,.46,1.1A1.5,1.5,0,0,0,127.868-824.265Zm6.556-1.967h5.245v-1.16h-5.245Zm-3.934-4.892h2.622v-7.565H130.49ZM131.8-824.921Z" transform="translate(-80.279 889.859)" fill="#fff"/>
  </g>
</svg>
