<svg xmlns="http://www.w3.org/2000/svg" xmlns:xlink="http://www.w3.org/1999/xlink" width="309.196" height="169.719" viewBox="0 0 309.196 169.719">
  <defs>
    <linearGradient id="linear-gradient" x1="0.5" x2="0.5" y2="1" gradientUnits="objectBoundingBox">
      <stop offset="0" stop-color="#4588c9"/>
      <stop offset="1" stop-color="#a27ee9"/>
    </linearGradient>
    <clipPath id="clip-path">
      <rect id="Rectángulo_4533" data-name="Rectángulo 4533" width="309.196" height="169.719" fill="url(#linear-gradient)"/>
    </clipPath>
    <clipPath id="clip-path-2">
      <rect id="Rectángulo_4534" data-name="Rectángulo 4534" width="54.496" height="54.496" fill="none" stroke="#fff" stroke-width="1"/>
    </clipPath>
  </defs>
  <g id="Grupo_3172" data-name="Grupo 3172" transform="translate(0)">
    <g id="Grupo_3164" data-name="Grupo 3164" transform="translate(0 0)">
      <g id="Grupo_3160" data-name="Grupo 3160" transform="translate(0 0)" clip-path="url(#clip-path)">
        <path id="Unión_13" data-name="Unión 13" d="M0,95.88H.017C.007,95.633,0,95.387,0,95.141V32.088C0,14.441,26.71,0,59.351,0h.376V0H309.2V95.141c0,17.649-26.706,32.09-59.343,32.09H71.956L0,169.722Z" transform="translate(-0.002 -0.002)" stroke="rgba(0,0,0,0)" stroke-width="1" fill="url(#linear-gradient)"/>
      </g>
    </g>
    <text id="Obtener_seguimiento_de_vulnerabilidades." data-name="Obtener seguimiento de vulnerabilidades." transform="translate(95.65 39.169)" fill="#fff" font-size="14" font-family="SegoeUI-Semibold, Segoe UI" font-weight="600"><tspan x="0" y="15">Obtener seguimiento de </tspan><tspan x="0" y="34">vulnerabilidades.</tspan></text>
    <g id="Grupo_3165" data-name="Grupo 3165" transform="translate(25.4 39.169)">
      <g id="Grupo_3162" data-name="Grupo 3162" transform="translate(0 0)" clip-path="url(#clip-path-2)">
        <path id="Trazado_1393" data-name="Trazado 1393" d="M54.5,27.249A27.248,27.248,0,1,1,27.249,0,27.247,27.247,0,0,1,54.5,27.249" transform="translate(0 0)" fill="none" stroke="#fff" stroke-width="1"/>
      </g>
    </g>
    <path id="warning_24dp_5F6368_FILL0_wght200_GRAD0_opsz24" d="M109.23-779.02,121.384-800l12.154,20.98Zm2.254-1.311h19.8l-9.9-17.046Zm9.9-1.816a.781.781,0,0,0,.575-.232.781.781,0,0,0,.232-.575.781.781,0,0,0-.232-.575.781.781,0,0,0-.575-.232.781.781,0,0,0-.575.232.781.781,0,0,0-.232.575.781.781,0,0,0,.232.575A.781.781,0,0,0,121.384-782.147Zm-.656-2.925h1.311v-6.556h-1.311ZM121.384-788.854Z" transform="translate(-68.384 854.616)" fill="#fff"/>
  </g>
</svg>
