<svg id="Grupo_5" data-name="Grupo 5" xmlns="http://www.w3.org/2000/svg" width="36.6" height="36.6" viewBox="0 0 36.6 36.6">
  <g id="Trazado_2" data-name="Trazado 2" fill="none">
    <path d="M18.3,0A18.3,18.3,0,1,1,0,18.3,18.3,18.3,0,0,1,18.3,0Z" stroke="none"/>
    <path d="M 18.29986572265625 1.999996185302734 C 13.94601631164551 1.999996185302734 9.852756500244141 3.695476531982422 6.774116516113281 6.774116516113281 C 3.695476531982422 9.852756500244141 1.999996185302734 13.94601631164551 1.999996185302734 18.29986572265625 C 1.999996185302734 22.65371704101562 3.695476531982422 26.74697494506836 6.774116516113281 29.82561492919922 C 9.852756500244141 32.90425491333008 13.94601631164551 34.59973526000977 18.29986572265625 34.59973526000977 C 22.65371704101562 34.59973526000977 26.7469654083252 32.90425491333008 29.82561492919922 29.82561492919922 C 32.90425491333008 26.7469654083252 34.59973526000977 22.65371704101562 34.59973526000977 18.29986572265625 C 34.59973526000977 13.94601631164551 32.90425491333008 9.852756500244141 29.82561492919922 6.774116516113281 C 26.74697494506836 3.695476531982422 22.65371704101562 1.999996185302734 18.29986572265625 1.999996185302734 M 18.29986572265625 -3.814697265625e-06 C 28.40659713745117 -3.814697265625e-06 36.59973526000977 8.193124771118164 36.59973526000977 18.29986572265625 C 36.59973526000977 28.40659713745117 28.40659713745117 36.59973526000977 18.29986572265625 36.59973526000977 C 8.193124771118164 36.59973526000977 -3.814697265625e-06 28.40659713745117 -3.814697265625e-06 18.29986572265625 C -3.814697265625e-06 8.193124771118164 8.193124771118164 -3.814697265625e-06 18.29986572265625 -3.814697265625e-06 Z" stroke="none" fill="#fff"/>
  </g>
  <text id="_4" data-name="4" transform="translate(12 2)" fill="#fff" font-size="24" font-family="SegoeUI-Semibold, Segoe UI" font-weight="600"><tspan x="0" y="26">4</tspan></text>
</svg>
